<svg xmlns="http://www.w3.org/2000/svg" viewBox="0 0 100 100" width="512" height="512" role="img" aria-label="Lista della spesa">
  <rect width="100" height="100" rx="24" fill="#e7f5ee"/>
  <path d="M19 33 H27 L31 45" fill="none" stroke="#248050" stroke-width="4.5" stroke-linecap="round" stroke-linejoin="round"/>
  <rect x="29" y="44" width="47" height="7" rx="3.5" fill="#248050"/>
  <path d="M33 51 H72 L67 70 H38 Z" fill="#2f9e63"/>
  <g stroke="#bfe9d2" stroke-width="2.4" stroke-linecap="round">
    <path d="M44 55 L42 66"/>
    <path d="M53 55 L53 66"/>
    <path d="M62 55 L64 66"/>
  </g>
  <path d="M41 70 L45 77 M64 70 L60 77" fill="none" stroke="#248050" stroke-width="3" stroke-linecap="round"/>
  <circle cx="45" cy="80" r="4.4" fill="#248050"/>
  <circle cx="61" cy="80" r="4.4" fill="#248050"/>
  <path d="M52 46 C52 33 61 24 73 23 C73 36 64 46 53 46 Z" fill="#43b97c"/>
  <path d="M56 42 C61 37 67 32 71 29" fill="none" stroke="#2f9e63" stroke-width="2.2" stroke-linecap="round"/>
</svg>
